M48
;Layer_Color=9474304
;FILE_FORMAT=2:5
INCH,TZ
;TYPE=PLATED
T1F00S00C0.00800
T2F00S00C0.12500
%
T01
X165429Y146567
X169554Y142454
X171616Y152737
X175741Y148624
X471859Y148180
X475984Y144067
X478046Y154350
X482171Y150237
X523541Y161278
X533116Y209373
X537241Y205260
X539303Y215543
X543428Y211430
X320003Y210230
X313522Y210340
X320168Y201181
Y222873
X319344Y232528
X328920Y231653
X331347Y237766
X327255Y241421
X342149Y250532
X299486Y250259
X307581Y211235
X312158Y201111
X114039Y210430
X109914Y214543
X107851Y204260
X103726Y208373
X98920Y247165
X82529Y246981
X116315Y247007
X132405Y246498
X145915
X138796Y255316
X127470Y256530
X125043Y264296
X131758Y262759
X145753Y263325
X145834Y277321
X139039Y271739
X137987Y283550
X131515Y277401
X126985Y273437
X129007Y288808
X138619Y305779
X107854Y299428
X90697Y298321
X90855Y277935
X107696
X124729Y161275
X128825Y315839
X125361Y319903
X116789Y319432
X107222Y324334
X90144Y318880
X128359Y329563
X122296Y343687
X115840Y343705
X116855Y390349
X107090
X110774Y399929
Y403866
Y407803
X114711
Y403866
Y399929
X118648
Y403866
Y407803
X119755Y416731
X103743Y408584
X97891Y394563
X100604Y426572
X145918Y420203
X145943Y411313
X145918Y401891
Y392771
X534023Y515621
X538148Y511508
X540210Y521791
X544335Y517678
X521369Y568452
X482400Y581059
X478275Y585172
X476213Y574889
X472087Y579002
X329428Y536316
X320522Y535136
X320082Y524587
X328979Y523538
X331886Y519550
X322634Y516761
X322493Y502103
X314830Y501933
X337472Y482014
X296107Y481769
X302595Y500917
X309157Y500028
X175562Y579683
X171437Y583797
X169374Y573513
X165249Y577627
X125088Y569105
X113900Y518513
X109775Y522626
X107713Y512343
X103588Y516456
T02
X147500Y125000
X499600
X562600Y188000
X437300Y269500
X394000
X209000
X84500Y188000
X209000Y339500
Y462400
X437300
X394000Y339500
X499600Y603100
X562600Y540100
X84500
X147500Y603100
M30
