G04*
G04 #@! TF.GenerationSoftware,Altium Limited,Altium Designer,20.1.14 (287)*
G04*
G04 Layer_Color=8421504*
%FSLAX25Y25*%
%MOIN*%
G70*
G04*
G04 #@! TF.SameCoordinates,153EAF41-479A-4314-9B68-228E5939B1CC*
G04*
G04*
G04 #@! TF.FilePolarity,Positive*
G04*
G01*
G75*
%ADD14P,0.21213X4X90.0*%
%ADD15R,0.04000X0.15000*%
%ADD16R,0.15000X0.15000*%
%ADD17R,0.37795X0.41142*%
%ADD18R,0.16142X0.04134*%
%ADD19O,0.07480X0.02362*%
%ADD20R,0.03378X0.06347*%
%ADD21R,0.07480X0.05906*%
%ADD22R,0.04331X0.06693*%
%ADD23R,0.02047X0.02047*%
G04:AMPARAMS|DCode=24|XSize=150mil|YSize=40mil|CornerRadius=0mil|HoleSize=0mil|Usage=FLASHONLY|Rotation=45.000|XOffset=0mil|YOffset=0mil|HoleType=Round|Shape=Rectangle|*
%AMROTATEDRECTD24*
4,1,4,-0.03889,-0.06718,-0.06718,-0.03889,0.03889,0.06718,0.06718,0.03889,-0.03889,-0.06718,0.0*
%
%ADD24ROTATEDRECTD24*%

G04:AMPARAMS|DCode=25|XSize=150mil|YSize=40mil|CornerRadius=0mil|HoleSize=0mil|Usage=FLASHONLY|Rotation=135.000|XOffset=0mil|YOffset=0mil|HoleType=Round|Shape=Rectangle|*
%AMROTATEDRECTD25*
4,1,4,0.06718,-0.03889,0.03889,-0.06718,-0.06718,0.03889,-0.03889,0.06718,0.06718,-0.03889,0.0*
%
%ADD25ROTATEDRECTD25*%

%ADD26R,0.06102X0.03543*%
%ADD27R,0.01378X0.03150*%
%ADD28R,0.03347X0.01378*%
%ADD29R,0.10236X0.10630*%
%ADD30R,0.03543X0.06102*%
D14*
X538547Y210170D02*
D03*
X108932Y517833D02*
D03*
X170437Y578587D02*
D03*
X477042Y149416D02*
D03*
X477413Y579883D02*
D03*
X539264Y516743D02*
D03*
X170436Y147793D02*
D03*
X108919Y209700D02*
D03*
D15*
X117199Y433952D02*
D03*
X110106D02*
D03*
X124292D02*
D03*
X131385D02*
D03*
X123484Y352854D02*
D03*
X117372Y352915D02*
D03*
X348734Y241595D02*
D03*
X342250D02*
D03*
X299483D02*
D03*
X292995D02*
D03*
X302575Y491755D02*
D03*
X296091D02*
D03*
X337511D02*
D03*
X343995D02*
D03*
D16*
X139509Y252779D02*
D03*
X104875D02*
D03*
D17*
X99327Y297000D02*
D03*
D18*
X138500Y307000D02*
D03*
Y287000D02*
D03*
D19*
X308571Y228778D02*
D03*
Y223778D02*
D03*
Y218778D02*
D03*
Y213778D02*
D03*
X327075Y228778D02*
D03*
Y223778D02*
D03*
Y218778D02*
D03*
Y213778D02*
D03*
X334294Y506377D02*
D03*
Y511377D02*
D03*
Y516377D02*
D03*
Y521377D02*
D03*
X315790Y506377D02*
D03*
Y511377D02*
D03*
Y516377D02*
D03*
Y521377D02*
D03*
D20*
X312142Y238873D02*
D03*
X322590D02*
D03*
X329841Y496282D02*
D03*
X319393D02*
D03*
X347590Y228373D02*
D03*
X337142D02*
D03*
X296074Y506273D02*
D03*
X306522D02*
D03*
D21*
X295366Y219278D02*
D03*
Y207467D02*
D03*
X348117Y515877D02*
D03*
Y527688D02*
D03*
X345970Y218835D02*
D03*
Y207024D02*
D03*
X298203Y515702D02*
D03*
Y527513D02*
D03*
D22*
X312705Y205778D02*
D03*
X322941D02*
D03*
X330160Y529377D02*
D03*
X319924D02*
D03*
X126618Y325000D02*
D03*
X116382D02*
D03*
X126736Y268500D02*
D03*
X116500D02*
D03*
X131518Y401866D02*
D03*
X141754D02*
D03*
X131474Y392866D02*
D03*
X141711D02*
D03*
D23*
X323467Y536877D02*
D03*
X326617D02*
D03*
X319397Y198278D02*
D03*
X316248D02*
D03*
X117425Y332500D02*
D03*
X120575D02*
D03*
X117925Y261000D02*
D03*
X121075D02*
D03*
X97910Y404568D02*
D03*
X101059D02*
D03*
X113711Y390366D02*
D03*
X110561D02*
D03*
X97884Y398889D02*
D03*
X101033D02*
D03*
D24*
X113499Y158308D02*
D03*
X117800Y154007D02*
D03*
X532197Y570781D02*
D03*
X527896Y575082D02*
D03*
D25*
X534959Y158440D02*
D03*
X530607Y154129D02*
D03*
X114193Y571418D02*
D03*
X118545Y575729D02*
D03*
D26*
X100636Y412149D02*
D03*
Y422583D02*
D03*
D27*
X119632Y411740D02*
D03*
X117664D02*
D03*
X115695D02*
D03*
X113726D02*
D03*
X111758D02*
D03*
X109790D02*
D03*
Y395992D02*
D03*
X111758D02*
D03*
X113726D02*
D03*
X115695D02*
D03*
X117664D02*
D03*
X119632D02*
D03*
D28*
X106935Y408787D02*
D03*
Y406819D02*
D03*
Y404850D02*
D03*
Y402882D02*
D03*
Y400913D02*
D03*
Y398945D02*
D03*
X122486D02*
D03*
Y400913D02*
D03*
Y402882D02*
D03*
Y404850D02*
D03*
Y406819D02*
D03*
Y408787D02*
D03*
D29*
X114711Y403866D02*
D03*
D30*
X131494Y411366D02*
D03*
X141927D02*
D03*
X141852Y419866D02*
D03*
X131419D02*
D03*
M02*
