G04*
G04 #@! TF.GenerationSoftware,Altium Limited,Altium Designer,20.1.14 (287)*
G04*
G04 Layer_Physical_Order=1*
G04 Layer_Color=255*
%FSLAX25Y25*%
%MOIN*%
G70*
G04*
G04 #@! TF.SameCoordinates,153EAF41-479A-4314-9B68-228E5939B1CC*
G04*
G04*
G04 #@! TF.FilePolarity,Positive*
G04*
G01*
G75*
%ADD14P,0.21213X4X90.0*%
%ADD15R,0.04000X0.15000*%
%ADD16R,0.15000X0.15000*%
%ADD17R,0.37795X0.41142*%
%ADD18R,0.16142X0.04134*%
%ADD19O,0.07480X0.02362*%
%ADD20R,0.03378X0.06347*%
%ADD21R,0.07480X0.05906*%
%ADD22R,0.04331X0.06693*%
%ADD23R,0.02047X0.02047*%
G04:AMPARAMS|DCode=24|XSize=150mil|YSize=40mil|CornerRadius=0mil|HoleSize=0mil|Usage=FLASHONLY|Rotation=45.000|XOffset=0mil|YOffset=0mil|HoleType=Round|Shape=Rectangle|*
%AMROTATEDRECTD24*
4,1,4,-0.03889,-0.06718,-0.06718,-0.03889,0.03889,0.06718,0.06718,0.03889,-0.03889,-0.06718,0.0*
%
%ADD24ROTATEDRECTD24*%

G04:AMPARAMS|DCode=25|XSize=150mil|YSize=40mil|CornerRadius=0mil|HoleSize=0mil|Usage=FLASHONLY|Rotation=135.000|XOffset=0mil|YOffset=0mil|HoleType=Round|Shape=Rectangle|*
%AMROTATEDRECTD25*
4,1,4,0.06718,-0.03889,0.03889,-0.06718,-0.06718,0.03889,-0.03889,0.06718,0.06718,-0.03889,0.0*
%
%ADD25ROTATEDRECTD25*%

%ADD26R,0.06102X0.03543*%
%ADD27R,0.01378X0.03150*%
%ADD28R,0.03347X0.01378*%
%ADD29R,0.10236X0.10630*%
%ADD30R,0.03543X0.06102*%
%ADD47C,0.01000*%
%ADD48C,0.02000*%
%ADD49C,0.01400*%
%ADD50C,0.20000*%
%ADD51C,0.01800*%
G36*
X321339Y537275D02*
X322602Y536011D01*
X322999Y535746D01*
X323467Y535653D01*
X323936Y535746D01*
X323996Y535787D01*
X324494Y535518D01*
X324486Y534691D01*
X323960Y534165D01*
Y497506D01*
X319393D01*
X318924Y497413D01*
X318527Y497147D01*
X318262Y496750D01*
X318169Y496282D01*
X318262Y495814D01*
X318527Y495417D01*
X318924Y495152D01*
X319393Y495059D01*
X323625D01*
X323960Y494725D01*
Y492542D01*
X314960D01*
X304379Y503124D01*
X304472Y503217D01*
Y504233D01*
X304839Y504600D01*
X306072D01*
X306314Y504648D01*
X306540Y504693D01*
X306540Y504693D01*
X306540Y504693D01*
X306745Y504829D01*
X306937Y504958D01*
X307387Y505408D01*
X307387Y505408D01*
X307388Y505408D01*
X307491Y505511D01*
X307756Y505908D01*
X307849Y506377D01*
X307756Y506845D01*
X307491Y507242D01*
X307094Y507507D01*
X306626Y507600D01*
X306158Y507507D01*
X305761Y507242D01*
X305658Y507139D01*
X305657Y507139D01*
X305566Y507047D01*
X304472D01*
Y510013D01*
X308509D01*
X310159Y508364D01*
X319420D01*
X320538Y509481D01*
Y522156D01*
X317365Y525329D01*
Y529502D01*
X318068D01*
X319059Y528511D01*
X319456Y528246D01*
X319924Y528153D01*
X320392Y528246D01*
X320789Y528511D01*
X321054Y528908D01*
X321147Y529377D01*
X321054Y529845D01*
X320789Y530242D01*
X319440Y531591D01*
X319043Y531856D01*
X318575Y531949D01*
X317365D01*
Y533422D01*
X321228Y537286D01*
X321339Y537275D01*
D02*
G37*
G36*
X333778Y534146D02*
Y527806D01*
X338428Y523157D01*
X338428Y518298D01*
X331468D01*
X326741Y523024D01*
Y533341D01*
X325676Y534406D01*
X325649Y538097D01*
X326001Y538452D01*
X329463Y538462D01*
X333778Y534146D01*
D02*
G37*
G36*
X130000Y329500D02*
Y321000D01*
X141000Y310500D01*
X147500D01*
Y303500D01*
X127000D01*
Y316500D01*
X123500Y320000D01*
Y326834D01*
X119551Y331519D01*
X120404Y333583D01*
X120822Y361340D01*
X125998D01*
X130000Y329500D01*
D02*
G37*
G36*
X147500Y283500D02*
Y264000D01*
Y244556D01*
X131370D01*
X122098Y260061D01*
X120051D01*
Y262024D01*
X123500Y265000D01*
Y273000D01*
X128000Y278000D01*
Y290500D01*
X147500D01*
Y283500D01*
D02*
G37*
G36*
X119000Y259000D02*
X118293Y244473D01*
X79500D01*
Y319000D01*
X113500Y329500D01*
Y361523D01*
X118293D01*
X119000Y259000D01*
D02*
G37*
G36*
X339270Y232019D02*
Y229596D01*
X337142D01*
X336673Y229503D01*
X336277Y229238D01*
X336011Y228841D01*
X335918Y228373D01*
X336011Y227904D01*
X336277Y227507D01*
X336673Y227242D01*
X337142Y227149D01*
X339270D01*
Y224632D01*
X335169D01*
X332943Y226859D01*
X323026D01*
X322995Y226890D01*
X322119Y226014D01*
Y213011D01*
X322127D01*
X325500Y209637D01*
Y203458D01*
X322806D01*
X322337Y203365D01*
X321940Y203100D01*
X321675Y202703D01*
X321582Y202235D01*
X321675Y201767D01*
X321940Y201370D01*
X322337Y201104D01*
X322806Y201011D01*
X324159D01*
X324350Y200549D01*
X322032Y198231D01*
X321793Y198279D01*
X321127D01*
X320263Y199143D01*
X319866Y199408D01*
X319397Y199502D01*
X318952Y199413D01*
X318925Y199411D01*
X318452Y199691D01*
X318452Y237649D01*
X322590D01*
X323059Y237742D01*
X323456Y238007D01*
X323721Y238404D01*
X323814Y238873D01*
X323721Y239341D01*
X323456Y239738D01*
X323059Y240003D01*
X322590Y240096D01*
X318822D01*
X318452Y240466D01*
Y242613D01*
X328677D01*
X339270Y232019D01*
D02*
G37*
G36*
X313046Y215132D02*
X315236Y212269D01*
Y201911D01*
X317295Y199853D01*
Y196703D01*
X314997D01*
X310145Y201555D01*
Y206331D01*
X304437Y211992D01*
Y215753D01*
X312571D01*
X313046Y215132D01*
D02*
G37*
D14*
X538547Y210170D02*
D03*
X108932Y517833D02*
D03*
X170437Y578587D02*
D03*
X477042Y149416D02*
D03*
X477413Y579883D02*
D03*
X539264Y516743D02*
D03*
X170436Y147793D02*
D03*
X108919Y209700D02*
D03*
D15*
X117199Y433952D02*
D03*
X110106D02*
D03*
X124292D02*
D03*
X131385D02*
D03*
X123484Y352854D02*
D03*
X117372Y352915D02*
D03*
X348734Y241595D02*
D03*
X342250D02*
D03*
X299483D02*
D03*
X292995D02*
D03*
X302575Y491755D02*
D03*
X296091D02*
D03*
X337511D02*
D03*
X343995D02*
D03*
D16*
X139509Y252779D02*
D03*
X104875D02*
D03*
D17*
X99327Y297000D02*
D03*
D18*
X138500Y307000D02*
D03*
Y287000D02*
D03*
D19*
X308571Y228778D02*
D03*
Y223778D02*
D03*
Y218778D02*
D03*
Y213778D02*
D03*
X327075Y228778D02*
D03*
Y223778D02*
D03*
Y218778D02*
D03*
Y213778D02*
D03*
X334294Y506377D02*
D03*
Y511377D02*
D03*
Y516377D02*
D03*
Y521377D02*
D03*
X315790Y506377D02*
D03*
Y511377D02*
D03*
Y516377D02*
D03*
Y521377D02*
D03*
D20*
X312142Y238873D02*
D03*
X322590D02*
D03*
X329841Y496282D02*
D03*
X319393D02*
D03*
X347590Y228373D02*
D03*
X337142D02*
D03*
X296074Y506273D02*
D03*
X306522D02*
D03*
D21*
X295366Y219278D02*
D03*
Y207467D02*
D03*
X348117Y515877D02*
D03*
Y527688D02*
D03*
X345970Y218835D02*
D03*
Y207024D02*
D03*
X298203Y515702D02*
D03*
Y527513D02*
D03*
D22*
X312705Y205778D02*
D03*
X322941D02*
D03*
X330160Y529377D02*
D03*
X319924D02*
D03*
X126618Y325000D02*
D03*
X116382D02*
D03*
X126736Y268500D02*
D03*
X116500D02*
D03*
X131518Y401866D02*
D03*
X141754D02*
D03*
X131474Y392866D02*
D03*
X141711D02*
D03*
D23*
X323467Y536877D02*
D03*
X326617D02*
D03*
X319397Y198278D02*
D03*
X316248D02*
D03*
X117425Y332500D02*
D03*
X120575D02*
D03*
X117925Y261000D02*
D03*
X121075D02*
D03*
X97910Y404568D02*
D03*
X101059D02*
D03*
X113711Y390366D02*
D03*
X110561D02*
D03*
X97884Y398889D02*
D03*
X101033D02*
D03*
D24*
X113499Y158308D02*
D03*
X117800Y154007D02*
D03*
X532197Y570781D02*
D03*
X527896Y575082D02*
D03*
D25*
X534959Y158440D02*
D03*
X530607Y154129D02*
D03*
X114193Y571418D02*
D03*
X118545Y575729D02*
D03*
D26*
X100636Y412149D02*
D03*
Y422583D02*
D03*
D27*
X119632Y411740D02*
D03*
X117664D02*
D03*
X115695D02*
D03*
X113726D02*
D03*
X111758D02*
D03*
X109790D02*
D03*
Y395992D02*
D03*
X111758D02*
D03*
X113726D02*
D03*
X115695D02*
D03*
X117664D02*
D03*
X119632D02*
D03*
D28*
X106935Y408787D02*
D03*
Y406819D02*
D03*
Y404850D02*
D03*
Y402882D02*
D03*
Y400913D02*
D03*
Y398945D02*
D03*
X122486D02*
D03*
Y400913D02*
D03*
Y402882D02*
D03*
Y404850D02*
D03*
Y406819D02*
D03*
Y408787D02*
D03*
D29*
X114711Y403866D02*
D03*
D30*
X131494Y411366D02*
D03*
X141927D02*
D03*
X141852Y419866D02*
D03*
X131419D02*
D03*
D47*
X342149Y241664D02*
X342234Y241578D01*
X342149Y241664D02*
Y250532D01*
X119632Y411740D02*
X119694Y411802D01*
Y416669D01*
X119755Y416731D01*
X97884Y398889D02*
X97888Y398886D01*
Y394566D02*
Y398886D01*
Y394566D02*
X97891Y394563D01*
X110553Y390358D02*
X110561Y390366D01*
X107099Y390358D02*
X110553D01*
X107090Y390349D02*
X107099Y390358D01*
X113711Y390366D02*
X113719Y390358D01*
X116847D01*
X116855Y390349D01*
X141927Y411366D02*
X141980Y411313D01*
X145943D01*
X141852Y419866D02*
X145364D01*
X145702Y420203D01*
X145918D01*
X141711Y392866D02*
X141806Y392771D01*
X145918D01*
X141754Y401866D02*
X141779Y401891D01*
X145918D01*
X100636Y408479D02*
X104235Y404880D01*
Y404850D02*
Y404880D01*
X100636Y408479D02*
Y412149D01*
X104235Y404850D02*
X106935D01*
X103743Y408368D02*
Y408584D01*
Y408368D02*
X104262Y407849D01*
Y407684D02*
Y407849D01*
Y407684D02*
X104868Y407078D01*
Y407005D02*
Y407078D01*
Y407005D02*
X106749D01*
X106935Y406819D01*
X131391Y419838D02*
X131419Y419866D01*
X127136Y419252D02*
X127722Y419838D01*
X131391D01*
X119587Y395946D02*
X119632Y395992D01*
X119587Y394023D02*
Y395946D01*
X113645Y391941D02*
X114686Y392982D01*
X118545D01*
X119587Y394023D01*
X113645Y390432D02*
Y391941D01*
Y390432D02*
X113711Y390366D01*
X110494Y390433D02*
X110561Y390366D01*
X110494Y390433D02*
Y391941D01*
X109790Y392645D02*
Y395992D01*
Y392645D02*
X110494Y391941D01*
X106897Y400951D02*
X106935Y400913D01*
X126183D02*
X127136Y401866D01*
X131518D01*
X131136Y393205D02*
X131474Y392866D01*
X106919Y402866D02*
X106935Y402882D01*
X122486Y400913D02*
X126183D01*
D48*
X97910Y398915D02*
Y404568D01*
X97884Y398889D02*
X97910Y398915D01*
X141890Y411403D02*
X141927Y411366D01*
X141890Y411403D02*
Y419829D01*
X141852Y419866D02*
X141890Y419829D01*
X131474Y392866D02*
X131496Y392888D01*
Y401844D01*
X131518Y401866D01*
X141732Y401844D02*
X141754Y401866D01*
X141732Y392888D02*
Y401844D01*
X141711Y392866D02*
X141732Y392888D01*
D49*
X100604Y422615D02*
X100636Y422583D01*
X100604Y422615D02*
Y426572D01*
X100636Y412149D02*
Y414500D01*
X101497Y415360D01*
X114560D01*
X102746Y402882D02*
X106935D01*
X101059Y404568D02*
X102746Y402882D01*
X101033Y398889D02*
X101133Y398988D01*
X102919D01*
X104833Y400902D02*
X106924D01*
X102919Y398988D02*
X104833Y400902D01*
X106924D02*
X106935Y400913D01*
X98968Y391940D02*
X105973Y398945D01*
X95633Y392760D02*
Y414077D01*
X96453Y391940D02*
X98968D01*
X95633Y392760D02*
X96453Y391940D01*
X320655Y193116D02*
X322614Y195075D01*
X319397Y198278D02*
X320620Y197055D01*
X321793D01*
X322614Y196235D01*
Y195075D02*
Y196235D01*
X315238Y193116D02*
X320655D01*
X155125Y196389D02*
X311966D01*
X315238Y193116D01*
X124885Y166149D02*
X155125Y196389D01*
X117800Y154212D02*
X124885Y161297D01*
Y166149D01*
X117800Y154007D02*
Y154212D01*
X113499Y158308D02*
X154379Y199188D01*
X292823D01*
X295373Y201738D01*
X322806Y202235D02*
X340196D01*
X346325Y196105D01*
X493246D02*
X523508Y165843D01*
X346325Y196105D02*
X493246D01*
X523508Y161228D02*
X530607Y154129D01*
X523508Y161228D02*
Y165843D01*
X534959Y158440D02*
Y158440D01*
X528270Y165129D02*
X534959Y158440D01*
X528270Y165129D02*
Y165214D01*
X494456Y199028D02*
X528270Y165214D01*
X348148Y199028D02*
X494456D01*
X346065Y201111D02*
X348148Y199028D01*
X348734Y236095D02*
Y241595D01*
X344481Y231841D02*
X348734Y236095D01*
X344481Y227763D02*
Y231841D01*
X339624Y222906D02*
X344481Y227763D01*
X334658Y222906D02*
X339624D01*
X340397Y228373D02*
X342234Y230209D01*
Y241578D01*
X333841Y223723D02*
X334658Y222906D01*
X327130Y223723D02*
X333841D01*
X346065Y201111D02*
Y206929D01*
X296091Y491755D02*
X296241Y491905D01*
X297061Y501040D02*
X298632D01*
X296241Y500220D02*
X297061Y501040D01*
X296241Y491905D02*
Y500220D01*
X299452Y501860D02*
Y506914D01*
X298632Y501040D02*
X299452Y501860D01*
Y506914D02*
X303914Y511377D01*
X323024Y540586D02*
X332382D01*
X322204Y538140D02*
X323467Y536877D01*
X322204Y538140D02*
Y539766D01*
X323024Y540586D01*
X332382D02*
X335985Y536983D01*
X494588D02*
X521401Y563796D01*
X335985Y536983D02*
X494588D01*
X495772Y534448D02*
X525662Y564338D01*
X348117Y532619D02*
X349946Y534448D01*
X495772D01*
X348117Y527688D02*
Y532619D01*
Y523003D02*
Y527688D01*
X521401Y563796D02*
Y568639D01*
X318575Y530725D02*
X319924Y529377D01*
X304803Y530725D02*
X318575D01*
X298327Y537200D02*
X304803Y530725D01*
X152694Y537200D02*
X298327D01*
X125007Y564888D02*
X152694Y537200D01*
X296063Y534537D02*
X298203Y532397D01*
Y527513D02*
Y532397D01*
X151075Y534537D02*
X296063D01*
X114193Y571418D02*
X151075Y534537D01*
X131398Y411270D02*
X131494Y411366D01*
X129230Y411270D02*
X131398D01*
X122497Y406830D02*
X124791D01*
X129230Y411270D01*
X122486Y406819D02*
X122497Y406830D01*
X127263Y412168D02*
Y419125D01*
X127136Y419252D02*
X127263Y419125D01*
X122497Y408798D02*
X123893D01*
X127263Y412168D01*
X122486Y408787D02*
X122497Y408798D01*
X124183Y424667D02*
Y433952D01*
X110207Y420826D02*
Y433952D01*
X107272Y417891D02*
X110207Y420826D01*
X95633Y414077D02*
X99447Y417891D01*
X107272D01*
X117199Y433952D02*
X117242Y433909D01*
Y418042D02*
Y433909D01*
X114560Y415360D02*
X117242Y418042D01*
X105973Y398945D02*
X106935D01*
X124130Y422258D02*
Y424614D01*
Y422258D02*
X127136Y419252D01*
X124130Y424614D02*
X124183Y424667D01*
X131385Y433952D02*
X131567Y433770D01*
Y425336D02*
Y433770D01*
Y425336D02*
X132374Y424529D01*
X133942D01*
X136636Y421835D01*
X134742Y411366D02*
X136636Y413260D01*
Y421835D01*
X131494Y411366D02*
X134742D01*
X118545Y575720D02*
X125007Y569259D01*
Y564888D02*
Y569259D01*
X118545Y575720D02*
Y575729D01*
X295366Y207467D02*
X295373Y207460D01*
Y201738D02*
Y207460D01*
X319393Y496282D02*
X324132D01*
X326390Y494025D01*
Y482124D02*
X329057Y479456D01*
X326390Y482124D02*
Y494025D01*
X329057Y479456D02*
X335007D01*
X337521Y481970D02*
Y482739D01*
X335007Y479456D02*
X337521Y481970D01*
X337511Y482749D02*
X337521Y482739D01*
X337511Y482749D02*
Y491755D01*
X306072Y505823D02*
X306522Y506273D01*
X304332Y505823D02*
X306072D01*
X302575Y504066D02*
X304332Y505823D01*
X302575Y491755D02*
Y504066D01*
X327075Y223778D02*
X327130Y223723D01*
X348725Y241604D02*
X348734Y241595D01*
X337142Y228373D02*
X340397D01*
X318259Y238873D02*
X322590D01*
X316233Y240898D02*
X318259Y238873D01*
X316233Y240898D02*
Y249289D01*
X312727Y252795D02*
X316233Y249289D01*
X301976Y252795D02*
X312727D01*
X299483Y250302D02*
X301976Y252795D01*
X299483Y241595D02*
Y250302D01*
X292995Y232502D02*
Y241595D01*
X296720Y228778D02*
X308571D01*
X292995Y232502D02*
X296720Y228778D01*
X290084Y508844D02*
X292654Y506273D01*
X290084Y513258D02*
X292528Y515702D01*
X298203D02*
X298877Y516377D01*
X298203Y522944D02*
X299770Y521377D01*
X308522Y223730D02*
X308571Y223778D01*
X308558Y218765D02*
X308571Y218778D01*
X306522Y506273D02*
X306626Y506377D01*
X314466Y238855D02*
X315925Y237396D01*
X334294Y506377D02*
X334306Y506389D01*
X334294Y516377D02*
X334319Y516351D01*
X345970Y207024D02*
X346065Y206929D01*
X345913Y218778D02*
X345970Y218835D01*
X346896Y521782D02*
X348117Y523003D01*
X290084Y508844D02*
Y513258D01*
X298203Y522944D02*
Y527513D01*
X313849Y223778D02*
X315925Y225854D01*
X326661Y497169D02*
Y509763D01*
X334271Y511353D02*
X334294Y511377D01*
X334324Y511407D01*
X329798Y496239D02*
X329841Y496282D01*
X345970Y207024D02*
Y211753D01*
X353264Y220427D02*
Y226545D01*
X315925Y225854D02*
Y237396D01*
X338428Y511407D02*
X342898Y515877D01*
X295366Y212136D02*
X296603Y213373D01*
X299044D01*
X308571Y223778D02*
X313849D01*
X300262Y219555D02*
X304437Y223730D01*
X308522D01*
X304437Y218765D02*
X308558D01*
X295366Y219278D02*
X295643Y219555D01*
X300262D01*
X312142Y238873D02*
X312159Y238855D01*
X314466D01*
X296099Y481777D02*
X296107Y481769D01*
X296091Y491755D02*
X296099Y491747D01*
X298877Y516377D02*
X315790D01*
X299770Y521377D02*
X315790D01*
X327075Y213778D02*
X343945D01*
X345970Y211753D01*
X327075Y218778D02*
X345913D01*
X345970Y218835D02*
X351673D01*
X353264Y220427D01*
X347590Y228373D02*
X351437D01*
X334306Y506389D02*
X338911D01*
X342898Y515877D02*
X348117D01*
X334319Y516351D02*
X338428D01*
X343859Y521782D02*
X346896D01*
X299044Y213373D02*
X304437Y218765D01*
X295366Y207467D02*
Y212136D01*
X303914Y511377D02*
X315790D01*
X351437Y228373D02*
X353264Y226545D01*
X328252Y511353D02*
X334271D01*
X326661Y509763D02*
X328252Y511353D01*
X334324Y511407D02*
X338428D01*
X326661Y497169D02*
X327591Y496239D01*
X329798D01*
X343995Y491755D02*
Y501304D01*
X338911Y506389D02*
X343995Y501304D01*
X296099Y481777D02*
Y491747D01*
X338428Y516351D02*
X343859Y521782D01*
X292654Y506273D02*
X296074D01*
X292528Y515702D02*
X298203D01*
X114193Y571385D02*
Y571418D01*
X532151Y570781D02*
X532197D01*
X525708Y564338D02*
X532151Y570781D01*
X525662Y564338D02*
X525708D01*
X527870Y575082D02*
X527896D01*
X521427Y568639D02*
X527870Y575082D01*
X521401Y568639D02*
X521427D01*
D50*
X437300Y269500D02*
D03*
X499600Y125000D02*
D03*
X84500Y540100D02*
D03*
X209000Y269500D02*
D03*
Y462400D02*
D03*
X437300D02*
D03*
X209000Y339500D02*
D03*
X394000Y269500D02*
D03*
Y339500D02*
D03*
X562600Y188000D02*
D03*
X499600Y603100D02*
D03*
X147500D02*
D03*
Y125000D02*
D03*
X562600Y540100D02*
D03*
X84500Y188000D02*
D03*
D51*
X310508Y208796D02*
D03*
X312532Y213742D02*
D03*
X313522Y210340D02*
D03*
X314964Y200743D02*
D03*
X312158Y201111D02*
D03*
X307581Y211235D02*
D03*
X320168Y201181D02*
D03*
X322937Y210354D02*
D03*
X320003Y210230D02*
D03*
X320044Y216758D02*
D03*
X320168Y222873D02*
D03*
X342149Y250532D02*
D03*
X299486Y250259D02*
D03*
X333529Y228055D02*
D03*
X320163Y227728D02*
D03*
X319344Y232528D02*
D03*
X328920Y231653D02*
D03*
X325237Y235202D02*
D03*
X327255Y241421D02*
D03*
X331347Y237766D02*
D03*
X335602Y233620D02*
D03*
X119755Y416731D02*
D03*
X107090Y390349D02*
D03*
X116855D02*
D03*
X97891Y394563D02*
D03*
X145943Y411313D02*
D03*
X145918Y420203D02*
D03*
Y401891D02*
D03*
Y392771D02*
D03*
X103743Y408584D02*
D03*
X100604Y426572D02*
D03*
X125043Y264296D02*
D03*
X127470Y256530D02*
D03*
X126985Y273437D02*
D03*
X129007Y288808D02*
D03*
X137987Y283550D02*
D03*
X131515Y277401D02*
D03*
X145834Y277321D02*
D03*
X139039Y271739D02*
D03*
X131758Y262759D02*
D03*
X145753Y263325D02*
D03*
X138796Y255316D02*
D03*
X132405Y246498D02*
D03*
X145915D02*
D03*
X125361Y319903D02*
D03*
X128359Y329563D02*
D03*
X122696Y337491D02*
D03*
X127293Y340689D02*
D03*
X122296Y343687D02*
D03*
X128825Y315839D02*
D03*
X138619Y305779D02*
D03*
X133688Y310709D02*
D03*
X128892Y305646D02*
D03*
X116789Y319432D02*
D03*
X115366Y310023D02*
D03*
X116315Y247007D02*
D03*
X98920Y247165D02*
D03*
X107538Y256732D02*
D03*
X107696Y277935D02*
D03*
X107854Y299428D02*
D03*
X115761Y338329D02*
D03*
X115840Y343705D02*
D03*
X107222Y324334D02*
D03*
X82553Y309312D02*
D03*
Y287647D02*
D03*
X82632Y267327D02*
D03*
X98999Y309628D02*
D03*
Y287726D02*
D03*
X90144Y318880D02*
D03*
X90697Y298321D02*
D03*
X90855Y277935D02*
D03*
X98841Y267801D02*
D03*
X90144Y257444D02*
D03*
X82529Y246981D02*
D03*
X171616Y152737D02*
D03*
X167491Y150680D02*
D03*
X165429Y146567D02*
D03*
X169554Y142454D02*
D03*
X173679Y144510D02*
D03*
X175741Y148624D02*
D03*
X109914Y214543D02*
D03*
X105789Y212487D02*
D03*
X103726Y208373D02*
D03*
X107851Y204260D02*
D03*
X111976Y206317D02*
D03*
X114039Y210430D02*
D03*
X109775Y522626D02*
D03*
X105650Y520570D02*
D03*
X103588Y516456D02*
D03*
X107713Y512343D02*
D03*
X111838Y514400D02*
D03*
X113900Y518513D02*
D03*
X171437Y583797D02*
D03*
X167312Y581740D02*
D03*
X165249Y577627D02*
D03*
X169374Y573513D02*
D03*
X173499Y575570D02*
D03*
X175562Y579683D02*
D03*
X478275Y585172D02*
D03*
X474150Y583116D02*
D03*
X472087Y579002D02*
D03*
X476213Y574889D02*
D03*
X480337Y576946D02*
D03*
X482400Y581059D02*
D03*
X540210Y521791D02*
D03*
X536085Y519734D02*
D03*
X534023Y515621D02*
D03*
X538148Y511508D02*
D03*
X542273Y513564D02*
D03*
X544335Y517678D02*
D03*
X478046Y154350D02*
D03*
X473921Y152294D02*
D03*
X471859Y148180D02*
D03*
X475984Y144067D02*
D03*
X480109Y146124D02*
D03*
X482171Y150237D02*
D03*
X539303Y215543D02*
D03*
X535178Y213487D02*
D03*
X533116Y209373D02*
D03*
X537241Y205260D02*
D03*
X541366Y207317D02*
D03*
X543428Y211430D02*
D03*
X523541Y161278D02*
D03*
X124729Y161275D02*
D03*
X125088Y569105D02*
D03*
X521369Y568452D02*
D03*
X337472Y482014D02*
D03*
X309157Y500028D02*
D03*
X322493Y502103D02*
D03*
X302595Y500917D02*
D03*
X335454Y524113D02*
D03*
X309942Y505344D02*
D03*
X314830Y501933D02*
D03*
X322634Y506192D02*
D03*
Y516761D02*
D03*
X328979Y523538D02*
D03*
X331298Y533801D02*
D03*
X322634Y511505D02*
D03*
X329428Y536316D02*
D03*
X331886Y519550D02*
D03*
X296107Y481769D02*
D03*
X320082Y524587D02*
D03*
X320522Y535136D02*
D03*
X110774Y399929D02*
D03*
Y403866D02*
D03*
Y407803D02*
D03*
X114711Y399929D02*
D03*
Y403866D02*
D03*
Y407803D02*
D03*
X118648Y399929D02*
D03*
Y403866D02*
D03*
Y407803D02*
D03*
M02*
