G04*
G04 #@! TF.GenerationSoftware,Altium Limited,Altium Designer,20.1.14 (287)*
G04*
G04 Layer_Physical_Order=6*
G04 Layer_Color=5050912*
%FSLAX25Y25*%
%MOIN*%
G70*
G04*
G04 #@! TF.SameCoordinates,1D987C98-FF78-4C22-975A-79D4403F1CEA*
G04*
G04*
G04 #@! TF.FilePolarity,Positive*
G04*
G01*
G75*
%ADD50C,0.20000*%
%ADD51C,0.01800*%
D50*
X437300Y269500D02*
D03*
X499600Y125000D02*
D03*
X84500Y540100D02*
D03*
X209000Y269500D02*
D03*
Y462400D02*
D03*
X437300D02*
D03*
X209000Y339500D02*
D03*
X394000Y269500D02*
D03*
Y339500D02*
D03*
X562600Y188000D02*
D03*
X499600Y603100D02*
D03*
X147500D02*
D03*
Y125000D02*
D03*
X562600Y540100D02*
D03*
X84500Y188000D02*
D03*
D51*
X107222Y324334D02*
D03*
X313522Y210340D02*
D03*
X312158Y201111D02*
D03*
X307581Y211235D02*
D03*
X320168Y201181D02*
D03*
X320003Y210230D02*
D03*
X320168Y222873D02*
D03*
X342149Y250532D02*
D03*
X299486Y250259D02*
D03*
X319344Y232528D02*
D03*
X328920Y231653D02*
D03*
X327255Y241421D02*
D03*
X331347Y237766D02*
D03*
X119755Y416731D02*
D03*
X107090Y390349D02*
D03*
X116855D02*
D03*
X97891Y394563D02*
D03*
X145943Y411313D02*
D03*
X145918Y420203D02*
D03*
Y401891D02*
D03*
Y392771D02*
D03*
X103743Y408584D02*
D03*
X100604Y426572D02*
D03*
X125043Y264296D02*
D03*
X127470Y256530D02*
D03*
X126985Y273437D02*
D03*
X129007Y288808D02*
D03*
X137987Y283550D02*
D03*
X131515Y277401D02*
D03*
X145834Y277321D02*
D03*
X139039Y271739D02*
D03*
X131758Y262759D02*
D03*
X145753Y263325D02*
D03*
X138796Y255316D02*
D03*
X132405Y246498D02*
D03*
X145915D02*
D03*
X125361Y319903D02*
D03*
X128359Y329563D02*
D03*
X122296Y343687D02*
D03*
X128825Y315839D02*
D03*
X138619Y305779D02*
D03*
X116789Y319432D02*
D03*
X116315Y247007D02*
D03*
X98920Y247165D02*
D03*
X107696Y277935D02*
D03*
X107854Y299428D02*
D03*
X115840Y343705D02*
D03*
X90144Y318880D02*
D03*
X90697Y298321D02*
D03*
X90855Y277935D02*
D03*
X82529Y246981D02*
D03*
X171616Y152737D02*
D03*
X165429Y146567D02*
D03*
X169554Y142454D02*
D03*
X175741Y148624D02*
D03*
X109914Y214543D02*
D03*
X103726Y208373D02*
D03*
X107851Y204260D02*
D03*
X114039Y210430D02*
D03*
X109775Y522626D02*
D03*
X103588Y516456D02*
D03*
X107713Y512343D02*
D03*
X113900Y518513D02*
D03*
X171437Y583797D02*
D03*
X165249Y577627D02*
D03*
X169374Y573513D02*
D03*
X175562Y579683D02*
D03*
X478275Y585172D02*
D03*
X472087Y579002D02*
D03*
X476213Y574889D02*
D03*
X482400Y581059D02*
D03*
X540210Y521791D02*
D03*
X534023Y515621D02*
D03*
X538148Y511508D02*
D03*
X544335Y517678D02*
D03*
X478046Y154350D02*
D03*
X471859Y148180D02*
D03*
X475984Y144067D02*
D03*
X482171Y150237D02*
D03*
X539303Y215543D02*
D03*
X533116Y209373D02*
D03*
X537241Y205260D02*
D03*
X543428Y211430D02*
D03*
X523541Y161278D02*
D03*
X124729Y161275D02*
D03*
X125088Y569105D02*
D03*
X521369Y568452D02*
D03*
X337472Y482014D02*
D03*
X309157Y500028D02*
D03*
X322493Y502103D02*
D03*
X302595Y500917D02*
D03*
X314830Y501933D02*
D03*
X322634Y516761D02*
D03*
X328979Y523538D02*
D03*
X329428Y536316D02*
D03*
X331886Y519550D02*
D03*
X296107Y481769D02*
D03*
X320082Y524587D02*
D03*
X320522Y535136D02*
D03*
X110774Y399929D02*
D03*
Y403866D02*
D03*
Y407803D02*
D03*
X114711Y399929D02*
D03*
Y403866D02*
D03*
Y407803D02*
D03*
X118648Y399929D02*
D03*
Y403866D02*
D03*
Y407803D02*
D03*
M02*
