G04*
G04 #@! TF.GenerationSoftware,Altium Limited,Altium Designer,20.1.14 (287)*
G04*
G04 Layer_Color=65535*
%FSLAX25Y25*%
%MOIN*%
G70*
G04*
G04 #@! TF.SameCoordinates,1D987C98-FF78-4C22-975A-79D4403F1CEA*
G04*
G04*
G04 #@! TF.FilePolarity,Positive*
G04*
G01*
G75*
%ADD10C,0.00984*%
%ADD11C,0.01575*%
%ADD12C,0.00787*%
%ADD13C,0.00700*%
D10*
X138992Y282768D02*
X138254Y283194D01*
Y282342D01*
X138992Y282768D01*
X327567Y210432D02*
X326829Y210858D01*
Y210005D01*
X327567Y210432D01*
X316282Y524723D02*
X315544Y525149D01*
Y524297D01*
X316282Y524723D01*
X123274Y415087D02*
X122536Y415513D01*
Y414660D01*
X123274Y415087D01*
D11*
X319397Y214585D02*
X318853Y215334D01*
X317973Y215048D01*
Y214122D01*
X318853Y213836D01*
X319397Y214585D01*
X325042Y520570D02*
X324498Y521318D01*
X323618Y521032D01*
Y520107D01*
X324498Y519821D01*
X325042Y520570D01*
D12*
X124917Y276528D02*
Y317472D01*
X119799D02*
X124917D01*
X119799Y276528D02*
X124917D01*
X313886Y231121D02*
X321760D01*
X313886Y211436D02*
X321760D01*
X313886D02*
Y231121D01*
X321760Y211436D02*
Y231121D01*
X321105Y504034D02*
X328979D01*
X321105Y523719D02*
X328979D01*
Y504034D02*
Y523719D01*
X321105Y504034D02*
Y523719D01*
X315012Y235526D02*
X319720D01*
X315012Y242219D02*
X319720D01*
X322263Y499629D02*
X326971D01*
X322263Y492936D02*
X326971D01*
X298712Y211995D02*
Y214750D01*
X292020Y211995D02*
Y214750D01*
X344771Y520404D02*
Y523160D01*
X351463Y520404D02*
Y523160D01*
X340012Y231719D02*
X344720D01*
X340012Y225026D02*
X344720D01*
X298944Y502927D02*
X303652D01*
X298944Y509620D02*
X303652D01*
X349317Y211552D02*
Y214308D01*
X342624Y211552D02*
Y214308D01*
X294856Y520230D02*
Y522986D01*
X301549Y520230D02*
Y522986D01*
X316445Y208731D02*
X319201D01*
X316445Y202825D02*
X319201D01*
X323664Y526424D02*
X326420D01*
X323664Y532329D02*
X326420D01*
X323074Y539377D02*
X327011D01*
X323074Y534377D02*
X327011D01*
X315854Y195778D02*
X319791D01*
X315854Y200778D02*
X319791D01*
X117032Y335000D02*
X120969D01*
X117032Y330000D02*
X120969D01*
X117532Y263500D02*
X121469D01*
X117532Y258500D02*
X121469D01*
X120122Y322047D02*
X122878D01*
X120122Y327953D02*
X122878D01*
X120240Y265547D02*
X122996D01*
X120240Y271453D02*
X122996D01*
X106443Y411051D02*
Y412134D01*
X107526D01*
X106443Y395598D02*
Y396681D01*
Y395598D02*
X107526D01*
X121896D02*
X122978D01*
Y396681D01*
Y411051D02*
Y412134D01*
X121896D02*
X122978D01*
X97979Y415397D02*
Y419335D01*
X103293Y415397D02*
Y419335D01*
X134667Y422523D02*
X138604D01*
X134667Y417209D02*
X138604D01*
X134742Y408709D02*
X138679D01*
X134742Y414023D02*
X138679D01*
X97490Y396389D02*
X101427D01*
X97490Y401389D02*
X101427D01*
X110167Y392866D02*
X114104D01*
X110167Y387866D02*
X114104D01*
X97516Y402068D02*
X101453D01*
X97516Y407068D02*
X101453D01*
X135215Y389913D02*
X137970D01*
X135215Y395819D02*
X137970D01*
X135258Y398913D02*
X138014D01*
X135258Y404819D02*
X138014D01*
D13*
X128209Y317499D02*
Y315000D01*
X128709Y314500D01*
X129709D01*
X130209Y315000D01*
Y317499D01*
X132708Y314500D02*
Y317499D01*
X131209Y316000D01*
X133208D01*
X116119Y417244D02*
Y414745D01*
X116618Y414245D01*
X117618D01*
X118118Y414745D01*
Y417244D01*
X119117Y416745D02*
X119617Y417244D01*
X120617D01*
X121117Y416745D01*
Y416245D01*
X120617Y415745D01*
X120117D01*
X120617D01*
X121117Y415245D01*
Y414745D01*
X120617Y414245D01*
X119617D01*
X119117Y414745D01*
X328887Y211560D02*
Y209061D01*
X329387Y208561D01*
X330387D01*
X330887Y209061D01*
Y211560D01*
X333886Y208561D02*
X331886D01*
X333886Y210560D01*
Y211060D01*
X333386Y211560D01*
X332386D01*
X331886Y211060D01*
X310578Y526550D02*
Y524051D01*
X311078Y523551D01*
X312077D01*
X312577Y524051D01*
Y526550D01*
X313577Y523551D02*
X314577D01*
X314077D01*
Y526550D01*
X313577Y526050D01*
X89851Y420796D02*
Y423795D01*
X91351D01*
X91850Y423295D01*
Y422296D01*
X91351Y421796D01*
X89851D01*
X90851D02*
X91850Y420796D01*
X92850D02*
X93850D01*
X93350D01*
Y423795D01*
X92850Y423295D01*
X95349Y420796D02*
X96349D01*
X95849D01*
Y423795D01*
X95349Y423295D01*
X144631Y419921D02*
Y422920D01*
X146131D01*
X146630Y422420D01*
Y421420D01*
X146131Y420921D01*
X144631D01*
X145631D02*
X146630Y419921D01*
X147630D02*
X148630D01*
X148130D01*
Y422920D01*
X147630Y422420D01*
X150129D02*
X150629Y422920D01*
X151629D01*
X152129Y422420D01*
Y420421D01*
X151629Y419921D01*
X150629D01*
X150129Y420421D01*
Y422420D01*
X144696Y411420D02*
Y414419D01*
X146195D01*
X146695Y413919D01*
Y412920D01*
X146195Y412420D01*
X144696D01*
X145695D02*
X146695Y411420D01*
X147695Y411920D02*
X148195Y411420D01*
X149194D01*
X149694Y411920D01*
Y413919D01*
X149194Y414419D01*
X148195D01*
X147695Y413919D01*
Y413419D01*
X148195Y412920D01*
X149694D01*
X324965Y236142D02*
Y239141D01*
X326464D01*
X326964Y238642D01*
Y237642D01*
X326464Y237142D01*
X324965D01*
X325964D02*
X326964Y236142D01*
X327964Y238642D02*
X328464Y239141D01*
X329463D01*
X329963Y238642D01*
Y238142D01*
X329463Y237642D01*
X329963Y237142D01*
Y236642D01*
X329463Y236142D01*
X328464D01*
X327964Y236642D01*
Y237142D01*
X328464Y237642D01*
X327964Y238142D01*
Y238642D01*
X328464Y237642D02*
X329463D01*
X312036Y496083D02*
Y499082D01*
X313535D01*
X314035Y498583D01*
Y497583D01*
X313535Y497083D01*
X312036D01*
X313036D02*
X314035Y496083D01*
X315035Y499082D02*
X317034D01*
Y498583D01*
X315035Y496583D01*
Y496083D01*
X300185Y204390D02*
Y207389D01*
X301685D01*
X302185Y206889D01*
Y205889D01*
X301685Y205389D01*
X300185D01*
X301185D02*
X302185Y204390D01*
X305184Y207389D02*
X304184Y206889D01*
X303184Y205889D01*
Y204889D01*
X303684Y204390D01*
X304684D01*
X305184Y204889D01*
Y205389D01*
X304684Y205889D01*
X303184D01*
X338497Y527243D02*
Y530242D01*
X339996D01*
X340496Y529742D01*
Y528743D01*
X339996Y528243D01*
X338497D01*
X339497D02*
X340496Y527243D01*
X343495Y530242D02*
X341496D01*
Y528743D01*
X342496Y529243D01*
X342995D01*
X343495Y528743D01*
Y527743D01*
X342995Y527243D01*
X341996D01*
X341496Y527743D01*
X350123Y225688D02*
Y228687D01*
X351622D01*
X352122Y228187D01*
Y227187D01*
X351622Y226687D01*
X350123D01*
X351122D02*
X352122Y225688D01*
X354621D02*
Y228687D01*
X353122Y227187D01*
X355121D01*
X288826Y506103D02*
Y509102D01*
X290325D01*
X290825Y508602D01*
Y507602D01*
X290325Y507102D01*
X288826D01*
X289826D02*
X290825Y506103D01*
X291825Y508602D02*
X292325Y509102D01*
X293324D01*
X293824Y508602D01*
Y508102D01*
X293324Y507602D01*
X292825D01*
X293324D01*
X293824Y507102D01*
Y506603D01*
X293324Y506103D01*
X292325D01*
X291825Y506603D01*
X350927Y204141D02*
Y207140D01*
X352427D01*
X352926Y206640D01*
Y205640D01*
X352427Y205140D01*
X350927D01*
X351927D02*
X352926Y204141D01*
X355925D02*
X353926D01*
X355925Y206140D01*
Y206640D01*
X355426Y207140D01*
X354426D01*
X353926Y206640D01*
X289426Y527233D02*
Y530232D01*
X290925D01*
X291425Y529732D01*
Y528732D01*
X290925Y528232D01*
X289426D01*
X290426D02*
X291425Y527233D01*
X292425D02*
X293425D01*
X292925D01*
Y530232D01*
X292425Y529732D01*
X124558Y333500D02*
X124058Y333999D01*
X123058D01*
X122558Y333500D01*
Y331500D01*
X123058Y331000D01*
X124058D01*
X124558Y331500D01*
X125557Y331000D02*
X126557D01*
X126057D01*
Y333999D01*
X125557Y333500D01*
X128057D02*
X128556Y333999D01*
X129556D01*
X130056Y333500D01*
Y333000D01*
X129556Y332500D01*
X129056D01*
X129556D01*
X130056Y332000D01*
Y331500D01*
X129556Y331000D01*
X128556D01*
X128057Y331500D01*
X125058Y262000D02*
X124558Y262499D01*
X123558D01*
X123058Y262000D01*
Y260000D01*
X123558Y259501D01*
X124558D01*
X125058Y260000D01*
X126057Y259501D02*
X127057D01*
X126557D01*
Y262499D01*
X126057Y262000D01*
X130556Y259501D02*
X128557D01*
X130556Y261500D01*
Y262000D01*
X130056Y262499D01*
X129056D01*
X128557Y262000D01*
X131750Y328000D02*
X131251Y328500D01*
X130251D01*
X129751Y328000D01*
Y326000D01*
X130251Y325500D01*
X131251D01*
X131750Y326000D01*
X132750Y325500D02*
X133750D01*
X133250D01*
Y328500D01*
X132750Y328000D01*
X135249Y325500D02*
X136249D01*
X135749D01*
Y328500D01*
X135249Y328000D01*
X131751Y271500D02*
X131251Y272000D01*
X130251D01*
X129751Y271500D01*
Y269500D01*
X130251Y269001D01*
X131251D01*
X131751Y269500D01*
X132750Y269001D02*
X133750D01*
X133250D01*
Y272000D01*
X132750Y271500D01*
X135249D02*
X135749Y272000D01*
X136749D01*
X137249Y271500D01*
Y269500D01*
X136749Y269001D01*
X135749D01*
X135249Y269500D01*
Y271500D01*
X92884Y399889D02*
X92384Y400389D01*
X91385D01*
X90885Y399889D01*
Y397890D01*
X91385Y397390D01*
X92384D01*
X92884Y397890D01*
X93884D02*
X94384Y397390D01*
X95383D01*
X95883Y397890D01*
Y399889D01*
X95383Y400389D01*
X94384D01*
X93884Y399889D01*
Y399389D01*
X94384Y398889D01*
X95883D01*
X105636Y391366D02*
X105136Y391865D01*
X104137D01*
X103637Y391366D01*
Y389366D01*
X104137Y388866D01*
X105136D01*
X105636Y389366D01*
X106636Y391366D02*
X107136Y391865D01*
X108135D01*
X108635Y391366D01*
Y390866D01*
X108135Y390366D01*
X108635Y389866D01*
Y389366D01*
X108135Y388866D01*
X107136D01*
X106636Y389366D01*
Y389866D01*
X107136Y390366D01*
X106636Y390866D01*
Y391366D01*
X107136Y390366D02*
X108135D01*
X92985Y405568D02*
X92485Y406068D01*
X91485D01*
X90986Y405568D01*
Y403569D01*
X91485Y403069D01*
X92485D01*
X92985Y403569D01*
X93985Y406068D02*
X95984D01*
Y405568D01*
X93985Y403569D01*
Y403069D01*
X146850Y395733D02*
X146350Y396233D01*
X145350D01*
X144850Y395733D01*
Y393734D01*
X145350Y393234D01*
X146350D01*
X146850Y393734D01*
X149849Y396233D02*
X148849Y395733D01*
X147849Y394733D01*
Y393734D01*
X148349Y393234D01*
X149349D01*
X149849Y393734D01*
Y394233D01*
X149349Y394733D01*
X147849D01*
X146901Y404646D02*
X146401Y405146D01*
X145402D01*
X144902Y404646D01*
Y402646D01*
X145402Y402146D01*
X146401D01*
X146901Y402646D01*
X149900Y405146D02*
X147901D01*
Y403646D01*
X148900Y404146D01*
X149400D01*
X149900Y403646D01*
Y402646D01*
X149400Y402146D01*
X148401D01*
X147901Y402646D01*
X328209Y205021D02*
X327710Y205521D01*
X326710D01*
X326210Y205021D01*
Y203022D01*
X326710Y202522D01*
X327710D01*
X328209Y203022D01*
X330709Y202522D02*
Y205521D01*
X329209Y204021D01*
X331208D01*
X313660Y531984D02*
X313160Y532483D01*
X312160D01*
X311660Y531984D01*
Y529984D01*
X312160Y529485D01*
X313160D01*
X313660Y529984D01*
X314659Y531984D02*
X315159Y532483D01*
X316159D01*
X316659Y531984D01*
Y531484D01*
X316159Y530984D01*
X315659D01*
X316159D01*
X316659Y530484D01*
Y529984D01*
X316159Y529485D01*
X315159D01*
X314659Y529984D01*
X318032Y537954D02*
X317532Y538453D01*
X316532D01*
X316032Y537954D01*
Y535954D01*
X316532Y535454D01*
X317532D01*
X318032Y535954D01*
X321031Y535454D02*
X319031D01*
X321031Y537454D01*
Y537954D01*
X320531Y538453D01*
X319531D01*
X319031Y537954D01*
X323479Y199355D02*
X322980Y199855D01*
X321980D01*
X321480Y199355D01*
Y197356D01*
X321980Y196856D01*
X322980D01*
X323479Y197356D01*
X324479Y196856D02*
X325479D01*
X324979D01*
Y199855D01*
X324479Y199355D01*
M02*
